# xmcd
#
# Track frame offsets: 
#        150
#        4758
#        25129
#        42559
#        62549
#        79948
#        102217
#        123415
#        142214
#        163160
#        184494
#        203523
#        226213
#        246771
#        266265
#        282716
#        302290
#
# Disc length: 4378 seconds
#
# Revision: 3
# Processed by: cddbd v1.5.2PL0 Copyright (c) Steve Scherf et al.
# Submitted via: ExactAudioCopy v1.0b3
#
DISCID=eb111811
DTITLE=SKE48 - Team S 2nd stage 手をつなぎながら
DYEAR=2010
DGENRE=JPop
TTITLE0=overture(SKE48 ver.)
TTITLE1=僕らの風
TTITLE2=マンゴー No.2
TTITLE3=手をつなぎながら
TTITLE4=チャイムはLOVE SONG
TTITLE5=Glory days
TTITLE6=この胸のバーコード
TTITLE7=ウィンブルドンへ連れて行って
TTITLE8=雨のピアニスト
TTITLE9=チョコの行方
TTITLE10=innocence
TTITLE11=ロマンスロケット
TTITLE12=恋の傾向と対策
TTITLE13=大好き
TTITLE14=ロープの友情
TTITLE15=火曜日の夜、水曜日の朝
TTITLE16=遠くにいても
EXTD=YEAR: 2010
EXTT0=
EXTT1=
EXTT2=
EXTT3=
EXTT4=
EXTT5=
EXTT6=
EXTT7=
EXTT8=
EXTT9=
EXTT10=
EXTT11=
EXTT12=
EXTT13=
EXTT14=
EXTT15=
EXTT16=
PLAYORDER=
